HIERARCHY
ROOT Hips
{
  OFFSET 0 0 0
  CHANNELS 6 Xposition Yposition Zposition Zrotation Yrotation Xrotation
  JOINT LeftThigh
  {
    OFFSET 8.409438 0 -5.917753
    CHANNELS 3 Zrotation Yrotation Xrotation
    JOINT LeftLeg
    {
      OFFSET 0 0 -42.358652
      CHANNELS 3 Zrotation Yrotation Xrotation
      JOINT LeftFoot
      {
        OFFSET 0 0 -39.357303
        CHANNELS 3 Zrotation Yrotation Xrotation
      }
    }
  }
  JOINT RightThigh
  {
    OFFSET -8.409438 0 -5.917753
    CHANNELS 3 Zrotation Yrotation Xrotation
    JOINT RightLeg
    {
      OFFSET 0 0 -42.358652
      CHANNELS 3 Zrotation Yrotation Xrotation
      JOINT RightFoot
      {
        OFFSET 0 0 -39.357303
        CHANNELS 3 Zrotation Yrotation Xrotation
      }
    }
  }
  JOINT SpineLow
  {
    OFFSET 0 0 4.719101
    CHANNELS 3 Zrotation Yrotation Xrotation
    JOINT SpineMid
    {
      OFFSET 0 0 12.899191
      CHANNELS 3 Zrotation Yrotation Xrotation
      JOINT Chest
      {
        OFFSET 0 0 12.899191
        CHANNELS 3 Zrotation Yrotation Xrotation
        JOINT LeftShoulder
        {
          OFFSET 7.550562 1.41573 9.438202
          CHANNELS 3 Zrotation Yrotation Xrotation
          JOINT LeftArm
          {
            OFFSET 9.155056 0 4.247191
            CHANNELS 3 Zrotation Yrotation Xrotation
            JOINT LeftForearm
            {
              OFFSET 0 0 25.771955
              CHANNELS 3 Zrotation Yrotation Xrotation
              JOINT LeftHand
              {
                OFFSET 0 0 25.197169
                CHANNELS 3 Zrotation Yrotation Xrotation
              }
            }
          }
        }
        JOINT RightShoulder
        {
          OFFSET -7.550562 1.41573 9.438202
          CHANNELS 3 Zrotation Yrotation Xrotation
          JOINT RightArm
          {
            OFFSET -9.155056 0 4.247191
            CHANNELS 3 Zrotation Yrotation Xrotation
            JOINT RightForearm
            {
              OFFSET 0 0 -25.771955
              CHANNELS 3 Zrotation Yrotation Xrotation
              JOINT RightHand
              {
                OFFSET 0 0 -25.197169
                CHANNELS 3 Zrotation Yrotation Xrotation
              }
            }
          }
        }
        JOINT Neck
        {
          OFFSET 0 0 15.101124
          CHANNELS 3 Zrotation Yrotation Xrotation
          JOINT Head
          {
            OFFSET 0 0 11.325843
            CHANNELS 3 Zrotation Yrotation Xrotation
            End Site
            {
              OFFSET 0 0 14.157303
            }
          }
        }
      }
    }
  }
}
MOTION
Frames: 16
Frame Time: 0.0
0.0  89.887642  0.0  6.102871  -54.031706  -101.681498  44.969925  -33.551371  -43.535202  10.875152  31.293613  69.738658  -2.225696  0.823309  2.819177  -19.713318  24.726401  -23.700417  10.308947  11.936969  53.737088  6.859081  3.035834  -0.954849  0.043971  0.672872  0.763751  0.141462  1.837627  2.089354  0.141462  1.837627  2.089354  -5.210135  20.854263  10.225939  -118.00821  55.12773  -82.139062  -36.684507  17.083998  82.720093  65.114985  -20.456735  21.407654  3.322763  -1.743796  24.896007  121.263264  35.105761  43.125848  -12.610262  6.594219  -76.193192  92.147124  10.598614  -12.094422  20.35308  -1.31418  2.496614  15.269805  -0.903648  1.918706  
0.0  89.887642  0.0  6.070937  -53.386712  -101.336812  44.277716  -33.215826  -43.833107  11.066083  31.14411  69.897519  -2.087464  0.816637  2.814443  -20.218554  24.791326  -23.878418  10.279132  11.922076  53.550888  6.815507  3.047158  -0.893152  0.04277  0.663922  0.678599  0.135559  1.813399  1.856486  0.135559  1.813399  1.856485  -5.654128  20.869678  10.654158  -116.567588  55.427726  -80.731062  -36.834939  17.164867  82.392335  65.216137  -20.59103  21.511445  3.130047  -1.485639  25.46823  120.713899  35.039179  43.008384  -13.507497  6.858437  -77.082837  92.070686  10.733213  -12.210827  20.051935  -1.300484  2.694934  15.044381  -0.888045  2.066456  
0.0  89.887642  0.0  5.878835  -52.48348  -100.729196  43.42222  -32.830281  -44.326378  11.341354  30.90965  70.139201  -2.021291  0.789627  2.774868  -21.226144  24.656333  -24.129108  10.172598  11.965542  53.337892  6.893694  3.221912  -0.931082  -0.022552  0.612489  0.555261  -0.047585  1.674593  1.517476  -0.047585  1.674593  1.517476  -5.959982  21.129107  11.21312  -115.104296  55.82878  -79.125467  -37.112201  17.04395  81.99854  65.297731  -20.712256  21.667617  3.206905  -1.02153  26.235614  119.50159  35.201958  42.536781  -14.079734  7.201304  -78.245212  91.961145  10.983626  -12.359969  19.756457  -1.214288  3.007545  14.823183  -0.814469  2.297707  
0.0  89.887642  0.0  5.662896  -51.409827  -99.99062  42.500078  -32.358786  -44.97787  11.592939  30.683383  70.353394  -1.929006  0.793846  2.759017  -22.006718  24.61556  -24.386877  9.993814  12.043657  53.11049  6.85873  3.228242  -0.874211  -0.122633  0.532465  0.402273  -0.326387  1.45743  1.097034  -0.326387  1.45743  1.097034  -6.137346  21.591446  11.843226  -114.151925  56.608682  -77.600653  -37.691524  16.391143  81.585722  65.331567  -20.830629  21.881557  3.567776  -0.466657  27.120687  118.187594  35.159959  42.040551  -14.987908  7.634309  -79.622996  91.49727  11.475312  -12.720122  19.548747  -1.025734  3.475387  14.667559  -0.658894  2.642512  
0.0  89.887642  0.0  5.295346  -49.917043  -99.052306  41.302211  -31.831199  -45.798762  11.839845  30.436448  70.595414  -1.912498  0.775408  2.706777  -23.330397  24.425552  -24.630033  9.543165  12.159908  52.88739  7.02862  3.609159  -1.018545  -0.27871  0.417547  0.222741  -0.758042  1.143863  0.604073  -0.758042  1.143863  0.604073  -6.256631  22.194437  12.560583  -114.012873  57.857725  -76.421891  -38.670822  15.129153  81.162382  65.212487  -20.940171  22.273731  4.038255  0.198363  28.173353  116.428063  35.214461  41.234428  -15.801513  7.69207  -81.253046  91.147435  12.147932  -13.291518  19.227002  -0.78144  4.030561  14.425925  -0.459766  3.051058  
0.0  89.887642  0.0  4.994557  -48.20556  -98.218632  39.977845  -31.234897  -46.618407  11.943178  30.237389  70.763297  -1.827111  0.792919  2.689082  -24.393471  24.397372  -24.618703  9.125458  12.392002  52.506481  6.999655  3.595552  -0.97248  -0.425165  0.310347  0.062029  -1.161407  0.849363  0.164098  -1.161407  0.849363  0.164098  -6.603404  22.793433  13.077691  -114.253408  59.178304  -75.455121  -39.630807  13.74195  80.574448  64.873162  -20.994771  22.870707  4.439872  0.752634  29.18921  114.359712  35.367434  40.253746  -16.283256  7.255733  -83.242975  90.947393  12.626185  -13.556859  18.842257  -0.484654  4.5981  14.136207  -0.221909  3.467419  
0.0  89.887642  0.0  4.648378  -46.031573  -97.326152  38.331418  -30.554075  -47.538408  12.023421  29.99042  70.996578  -1.843925  0.762673  2.602062  -26.670334  23.98376  -24.549733  9.303193  12.615127  51.802713  7.057666  3.73431  -1.038866  -0.626863  0.227289  -0.040249  -1.71389  0.620181  -0.115902  -1.71389  0.620181  -0.115902  -7.224685  23.272952  13.123872  -114.114208  60.251381  -74.345772  -40.412082  12.735655  79.717953  64.213136  -20.97071  23.784642  4.916883  1.006455  29.857606  112.066805  35.679397  39.168659  -16.276051  6.33874  -85.488288  90.980461  12.829057  -13.358279  18.374359  -0.15523  4.88739  13.783056  0.030636  3.674155  
0.0  89.887642  0.0  4.307092  -43.535433  -96.359638  36.480462  -29.757088  -48.607155  11.917832  29.822906  71.092289  -1.612064  0.844488  2.49635  -28.184356  23.953399  -24.406227  8.728247  12.790442  51.261756  6.969643  3.6959  -0.965889  -0.862982  0.195889  -0.002674  -2.358945  0.53527  -0.014298  -2.358945  0.53527  -0.014298  -8.315622  23.165652  12.148942  -113.471192  61.144798  -72.993117  -41.320103  12.19941  78.34536  63.155267  -20.817445  25.225865  5.432399  0.826105  29.526725  109.642673  36.195901  37.824386  -16.279973  5.015615  -87.910586  90.990913  12.834716  -13.32838  17.892536  0.245431  4.544412  13.418447  0.317533  3.404581  
0.0  89.887642  0.0  3.893731  -41.069975  -95.369582  34.779623  -29.03803  -49.769187  11.909304  29.609272  71.186532  -1.315786  1.027421  2.510874  -29.594193  23.811423  -24.02598  7.979166  12.847263  50.726559  6.99126  3.895432  -1.092079  -1.125914  0.059023  0.129052  -3.077254  0.167299  0.349916  -3.077254  0.167299  0.349916  -9.636579  23.055539  10.068555  -113.481174  62.24925  -72.37916  -42.621943  11.60228  76.2244  61.643  -20.527418  27.263421  6.3622  1.138324  28.65971  106.958529  37.115382  36.023844  -15.828859  3.51926  -90.461867  90.897165  12.817386  -13.226768  17.494718  1.077051  3.960622  13.114339  0.922158  2.942395  
0.0  89.887642  0.0  3.383801  -38.697351  -94.238257  33.311742  -28.351906  -51.103664  11.940171  29.308055  71.239873  -1.189767  1.09689  2.484055  -30.833058  23.56007  -23.594116  7.513862  12.80523  49.90467  6.863957  3.836387  -1.003995  -1.191085  0.005151  0.262109  -3.255613  0.026983  0.715997  -3.255613  0.026983  0.715996  -12.186689  21.974615  7.596093  -113.893646  63.556294  -72.332077  -44.137096  11.105172  73.137119  59.786958  -19.994986  29.529963  6.582735  0.749015  27.771459  103.701028  38.69079  33.549124  -15.188881  2.015264  -93.306154  90.807409  12.606489  -13.197195  16.421802  1.503506  3.187416  12.308211  1.214385  2.352018  
0.0  89.887642  0.0  2.931008  -36.429445  -93.123624  32.004384  -27.583895  -52.405016  12.053763  28.845785  71.390599  -1.207579  1.161381  2.29637  -31.773363  23.277742  -22.942321  6.537729  12.632371  49.17607  7.044538  4.549367  -1.376567  -1.157437  -0.078024  0.346121  -3.164789  -0.196647  0.949574  -3.164789  -0.196647  0.949574  -15.048814  20.523196  5.021397  -115.459336  64.859733  -73.514455  -45.951451  10.77114  68.969133  58.24294  -18.99543  31.150073  6.756005  0.365645  27.245836  99.618702  40.882203  30.376188  -14.560697  0.873279  -96.310681  90.793038  12.378035  -13.284983  15.004789  1.869062  2.624354  11.24482  1.467325  1.923549  
0.0  89.887642  0.0  2.665854  -34.353828  -92.226571  30.87758  -26.632062  -53.421875  11.90029  28.360825  71.28956  -1.157348  1.284436  2.129535  -32.460549  23.117375  -22.09887  6.098034  12.629699  47.846882  6.91819  4.539933  -1.268352  -1.076169  -0.147956  0.410781  -2.944048  -0.386041  1.129168  -2.944048  -0.386041  1.129168  -17.764974  18.627058  2.409702  -119.412559  66.299323  -76.815922  -47.729947  10.010722  64.081592  57.946328  -18.056701  30.536422  7.227283  -0.204894  26.939053  94.503594  43.447682  26.15231  -14.035117  0.30588  -99.115634  90.903617  12.421307  -13.390273  13.448077  2.073903  2.228375  10.077557  1.605415  1.626368  
0.0  89.887642  0.0  2.387067  -32.418926  -91.306962  29.893579  -25.607978  -54.303009  11.767646  27.761213  71.09693  -1.169594  1.340553  2.014344  -32.653049  22.96135  -20.882477  5.552119  12.678322  46.14518  6.765531  4.5912  -1.273373  -1.009511  -0.182295  0.498069  -2.763063  -0.477375  1.36878  -2.763063  -0.477375  1.36878  -19.554091  16.343411  0.049969  -126.56817  68.053718  -82.274607  -49.33893  8.323122  58.952217  59.902144  -17.688453  27.2905  8.335737  -1.243166  26.345507  88.179542  46.421937  20.845875  -13.653248  0.189803  -101.645543  90.656453  12.667127  -13.441302  11.922832  2.003228  1.761151  8.93553  1.53749  1.282204  
0.0  89.887642  0.0  2.069205  -30.409161  -90.305593  28.847728  -24.528029  -55.08323  11.543044  27.216613  70.725562  -1.172584  1.383122  1.93707  -32.603513  22.746753  -19.218771  4.781534  12.896972  43.906471  6.678736  4.497489  -1.248112  -1.007238  -0.169534  0.606288  -2.757272  -0.438032  1.663978  -2.757272  -0.438032  1.663978  -19.654404  13.760097  -1.843298  -137.236297  70.557022  -90.625931  -50.998122  6.638654  54.4656  65.206178  -17.311511  21.84834  10.164433  -2.611691  25.431416  80.698459  49.719292  14.368317  -13.445546  0.174863  -103.839604  90.049464  12.816316  -13.175969  10.512061  1.635478  1.186368  7.880371  1.247459  0.861876  
0.0  89.887642  0.0  1.890759  -28.278836  -89.379122  27.595327  -23.318623  -55.573449  11.271739  26.697724  70.173258  -1.296582  1.36154  1.869876  -32.155758  22.731411  -17.119477  3.617123  13.081999  41.131962  6.449232  4.50658  -1.33512  -1.023458  -0.137463  0.714964  -2.801327  -0.345377  1.959714  -2.801327  -0.345377  1.959714  -19.341633  11.29836  -3.667288  -155.448843  72.728297  -105.910278  -50.43364  2.949907  51.33027  70.506981  -16.507  17.21229  12.363669  -3.894023  24.229543  72.271896  52.734177  6.655971  -13.407595  0.066933  -105.42106  89.351857  12.59659  -12.462287  9.076437  1.199722  0.649314  6.805814  0.909675  0.469268  
0.0  89.887642  0.0  1.878407  -26.087508  -88.585547  26.010117  -22.100921  -55.617973  11.102102  26.066208  69.400047  -1.585904  1.321428  1.833623  -31.174944  22.91719  -14.462667  1.886736  13.383357  37.763544  6.036487  4.474694  -1.477767  -0.915143  -0.127234  0.665137  -2.504752  -0.32253  1.822615  -2.504751  -0.32253  1.822614  -19.314912  9.88224  -4.593039  -177.045769  72.425706  -124.22288  -46.228605  -2.202218  50.018088  74.76173  -17.521833  17.504945  13.84927  -4.989771  23.837843  63.447057  55.157506  -1.944877  -13.493459  -0.070715  -106.233043  88.526194  11.992701  -11.444882  7.175027  0.843528  0.747697  5.380151  0.64153  0.550948  
